<?xml version="1.0" standalone="no"?>
<!DOCTYPE svg PUBLIC "-//W3C//DTD SVG 20010904//EN"
 "http://www.w3.org/TR/2001/REC-SVG-20010904/DTD/svg10.dtd">
<svg version="1.0" xmlns="http://www.w3.org/2000/svg"
 width="766.000000pt" height="766.000000pt" viewBox="0 0 766.000000 766.000000"
 preserveAspectRatio="xMidYMid meet">
<metadata>
Created by potrace 1.14, written by Peter Selinger 2001-2017
</metadata>
<g transform="translate(0.000000,766.000000) scale(0.100000,-0.100000)"
fill="#000000" stroke="none">
<path d="M3709 7655 c-4 -3 -49 -7 -244 -21 -27 -2 -61 -5 -75 -7 -14 -2 -50
-7 -80 -11 -30 -4 -77 -11 -105 -16 -27 -5 -63 -11 -80 -14 -16 -3 -41 -7 -55
-10 -14 -3 -36 -7 -50 -10 -22 -4 -57 -12 -195 -47 -22 -6 -48 -12 -57 -14 -9
-2 -27 -9 -40 -16 -13 -7 -25 -12 -28 -11 -3 1 -23 -4 -45 -10 -22 -6 -44 -13
-50 -14 -27 -7 -196 -74 -223 -88 -18 -9 -35 -16 -39 -16 -12 1 -108 -44 -111
-53 -2 -4 -8 -4 -14 -1 -6 4 -13 3 -17 -2 -7 -11 -179 -97 -183 -92 -2 2 -10
-3 -18 -10 -23 -19 -130 -81 -130 -75 0 3 -8 -3 -17 -13 -10 -10 -25 -20 -33
-22 -8 -2 -24 -12 -36 -23 -11 -10 -24 -19 -28 -19 -4 0 -16 -9 -28 -20 -12
-11 -28 -20 -35 -20 -7 0 -13 -5 -13 -10 0 -6 -3 -9 -8 -8 -4 2 -14 -3 -22 -9
-8 -7 -60 -46 -115 -87 -55 -41 -109 -83 -120 -93 -11 -10 -47 -40 -80 -68
-33 -27 -72 -62 -88 -77 -15 -15 -32 -28 -39 -28 -6 0 -8 -3 -5 -6 4 -4 -9
-19 -29 -35 -19 -15 -36 -31 -37 -36 -1 -4 -4 -7 -7 -6 -3 1 -15 -12 -25 -28
-11 -16 -26 -29 -34 -29 -8 0 -11 -3 -8 -7 4 -3 -5 -15 -20 -25 -16 -10 -25
-18 -21 -18 3 0 -11 -19 -33 -42 -72 -79 -88 -98 -85 -98 3 0 -23 -32 -86
-103 -16 -17 -28 -37 -28 -44 0 -7 -4 -13 -9 -13 -5 0 -19 -16 -31 -35 -12
-20 -27 -41 -33 -48 -21 -21 -97 -137 -97 -146 0 -5 -4 -11 -8 -13 -11 -4 -82
-123 -82 -137 0 -6 -4 -11 -9 -11 -5 0 -13 -10 -17 -22 -3 -12 -13 -28 -20
-36 -8 -7 -14 -20 -14 -28 0 -8 -5 -14 -11 -14 -5 0 -8 -4 -4 -9 3 -5 -2 -17
-11 -25 -9 -9 -17 -22 -18 -29 -4 -20 -40 -92 -48 -95 -5 -2 -8 -8 -8 -13 0
-6 -9 -29 -19 -52 -51 -112 -79 -186 -74 -191 4 -3 1 -6 -5 -6 -7 0 -12 -9
-12 -20 0 -11 -5 -20 -12 -20 -6 0 -9 -3 -6 -6 3 -3 -7 -41 -22 -85 -16 -43
-25 -79 -22 -79 4 0 2 -4 -4 -8 -7 -4 -15 -23 -18 -44 -3 -20 -10 -47 -15 -60
-11 -24 -47 -154 -55 -198 -3 -14 -8 -36 -11 -50 -3 -14 -7 -38 -10 -55 -3
-16 -7 -41 -10 -55 -3 -14 -7 -38 -10 -55 -3 -16 -7 -39 -9 -50 -3 -17 -12
-77 -21 -145 -6 -43 -17 -162 -19 -216 -2 -34 -5 -65 -8 -70 -6 -10 -2 -341 5
-414 3 -25 8 -83 12 -130 11 -116 13 -135 15 -135 2 0 9 -36 15 -90 4 -27 11
-72 17 -100 5 -27 11 -63 14 -80 5 -38 10 -62 23 -102 5 -18 8 -33 5 -33 -3 0
0 -8 5 -17 5 -10 11 -31 14 -48 3 -16 10 -43 17 -60 6 -16 11 -31 11 -32 -1
-2 0 -5 0 -8 1 -3 2 -8 3 -12 11 -44 30 -101 37 -115 5 -10 9 -25 9 -33 0 -8
4 -23 9 -33 10 -17 22 -48 27 -67 1 -5 10 -28 20 -50 10 -22 18 -42 19 -45 2
-17 56 -140 99 -225 27 -55 49 -103 48 -107 -1 -5 3 -8 8 -8 6 0 10 -6 10 -12
0 -7 10 -29 22 -48 12 -19 22 -37 23 -40 1 -10 49 -85 57 -88 5 -2 6 -8 2 -13
-3 -5 0 -9 6 -9 6 0 8 -4 5 -10 -3 -5 -2 -10 3 -10 5 0 15 -14 22 -30 7 -17
17 -30 22 -30 5 0 6 -4 3 -10 -3 -5 -2 -10 2 -10 5 0 24 -27 43 -59 19 -33 38
-57 42 -55 5 3 8 -1 8 -8 0 -14 5 -21 65 -98 17 -21 37 -48 46 -60 36 -47 115
-140 187 -218 12 -14 22 -28 22 -32 0 -4 11 -13 25 -20 13 -7 22 -17 19 -22
-3 -4 2 -8 11 -8 9 0 14 -4 10 -9 -3 -5 4 -12 15 -16 11 -3 20 -12 20 -20 0
-7 4 -15 9 -17 5 -1 36 -28 68 -59 62 -60 133 -123 202 -179 24 -19 55 -45 70
-57 14 -13 31 -23 37 -23 7 0 14 -6 17 -12 2 -7 38 -35 78 -63 41 -27 79 -53
84 -58 29 -22 165 -106 165 -101 0 5 13 -5 45 -33 7 -7 20 -13 28 -13 9 0 17
-4 19 -9 2 -5 21 -17 43 -28 22 -11 92 -46 155 -78 63 -32 121 -58 128 -58 6
0 12 -4 12 -9 0 -4 5 -8 11 -8 5 0 31 -10 57 -21 25 -12 53 -23 62 -24 8 -2
17 -4 20 -5 3 -1 8 -2 13 -1 4 0 7 -3 7 -7 0 -5 23 -15 51 -22 27 -8 53 -18
55 -22 3 -5 10 -6 15 -3 5 4 9 1 9 -5 0 -7 7 -10 15 -7 8 4 17 2 19 -2 5 -7
21 -13 84 -27 8 -1 21 -6 30 -10 18 -8 24 -9 62 -18 14 -3 50 -12 80 -21 30
-8 69 -17 85 -20 17 -3 44 -10 60 -15 17 -5 48 -11 70 -14 22 -2 51 -7 65 -10
36 -8 151 -25 159 -24 3 0 8 -1 11 -2 10 -4 57 -9 125 -14 39 -3 70 -6 70 -7
0 -8 436 -11 560 -4 85 4 178 14 254 26 36 5 82 12 101 14 30 4 181 33 258 50
12 3 32 7 45 9 12 3 38 10 57 16 32 10 66 19 97 24 7 1 16 5 19 9 4 4 18 7 31
7 12 0 23 5 23 12 0 6 3 9 6 5 3 -3 18 -1 33 5 14 5 33 11 41 13 32 8 78 24
155 54 91 37 92 37 200 87 44 20 82 38 85 38 14 2 105 52 108 59 2 4 9 7 16 7
7 0 50 22 94 49 45 27 82 47 82 45 0 -3 6 0 13 6 18 15 118 80 123 80 3 0 14
9 26 20 12 11 28 20 35 20 7 0 13 5 13 10 0 6 7 10 15 10 7 0 19 8 24 17 6 10
11 15 11 11 0 -5 8 0 18 10 10 9 29 24 42 32 12 8 34 25 48 37 14 13 28 23 31
23 3 0 23 16 44 36 20 19 37 33 37 29 0 -3 13 8 30 25 16 16 34 30 40 30 6 0
8 5 5 10 -3 6 -2 10 2 10 25 0 325 302 425 428 16 20 35 40 41 44 7 4 9 8 5 8
-5 0 0 8 10 18 9 10 26 31 37 46 11 16 27 37 35 46 28 30 120 168 120 179 0 6
5 11 10 11 6 0 10 7 10 15 0 8 5 15 10 15 6 0 14 10 19 23 9 22 50 89 70 114
6 6 13 23 17 37 3 14 10 26 14 26 5 0 12 10 16 22 3 13 13 31 22 41 8 9 11 17
7 17 -4 0 -1 8 7 18 17 18 78 147 78 163 0 5 5 9 11 9 5 0 8 4 4 9 -3 5 -1 12
5 16 5 3 10 15 10 25 0 10 4 20 10 22 5 1 11 12 13 23 2 11 10 36 19 55 22 48
70 172 73 190 2 8 4 16 5 18 2 1 3 5 5 10 1 4 4 14 8 22 8 22 47 152 51 175 2
11 9 32 15 48 6 15 8 27 5 27 -4 0 -2 6 3 13 6 6 9 20 8 30 -2 9 1 17 6 17 5
0 8 3 7 8 -2 6 12 95 18 117 5 19 13 60 19 100 4 22 8 49 10 60 2 11 6 40 9
65 4 25 8 56 11 70 7 34 15 129 20 220 7 129 3 585 -5 585 -1 0 -3 16 -5 35
-3 38 -24 207 -29 230 -1 8 -6 35 -10 60 -15 92 -25 139 -53 250 -13 52 -26
102 -28 110 -19 79 -31 116 -38 121 -4 3 -7 10 -6 15 1 5 0 11 -1 14 -1 3 -3
12 -5 20 -2 13 -35 105 -52 150 -4 8 -7 17 -8 20 -1 3 -7 18 -13 33 -7 16 -12
30 -12 31 0 2 -9 23 -19 47 -11 24 -20 47 -20 52 -2 15 -165 332 -175 339 -6
4 -8 8 -4 8 9 0 -91 162 -106 172 -6 4 -8 8 -3 8 4 0 -9 22 -28 50 -19 27 -35
54 -35 59 0 5 -4 11 -8 13 -5 2 -23 26 -42 53 -18 28 -36 52 -39 55 -3 3 -22
25 -41 50 -41 53 -44 58 -70 89 -11 13 -20 28 -20 33 0 4 -7 8 -15 8 -8 0 -15
6 -15 13 0 19 -198 228 -330 347 -45 41 -93 85 -106 98 -13 13 -24 19 -24 15
0 -4 -4 -3 -8 3 -12 19 -132 115 -132 107 0 -4 -4 -3 -8 2 -13 19 -100 85
-111 85 -6 0 -11 5 -11 10 0 6 -7 10 -15 10 -7 0 -18 6 -22 13 -10 16 -63 50
-63 40 0 -4 -7 2 -15 14 -8 11 -26 24 -40 27 -14 4 -25 11 -25 17 0 6 -4 7
-10 4 -5 -3 -10 -1 -10 4 0 6 -7 11 -15 11 -8 0 -15 5 -15 10 0 6 -4 10 -8 10
-4 0 -52 25 -107 55 -54 30 -101 53 -103 50 -2 -2 -13 5 -25 16 -11 10 -29 19
-39 19 -10 0 -18 5 -18 11 0 5 -4 8 -9 5 -5 -3 -14 1 -21 9 -7 8 -16 13 -20
10 -5 -3 -11 -1 -15 5 -4 6 -11 8 -16 5 -5 -4 -9 -2 -9 2 0 5 -17 15 -37 23
-21 7 -53 19 -70 27 -18 7 -35 13 -38 13 -3 0 -18 6 -33 14 -74 38 -393 137
-449 139 -7 0 -13 3 -13 7 0 4 -33 13 -72 20 -40 8 -75 14 -78 15 -3 1 -27 5
-55 10 -27 4 -59 10 -70 12 -11 2 -31 6 -45 7 -90 12 -136 18 -140 21 -3 2
-48 6 -100 10 -52 4 -115 9 -140 11 -65 7 -337 14 -341 9z"/>
</g>
</svg>
