<?xml version="1.0" standalone="no"?>
<!DOCTYPE svg PUBLIC "-//W3C//DTD SVG 20010904//EN"
 "http://www.w3.org/TR/2001/REC-SVG-20010904/DTD/svg10.dtd">
<svg version="1.0" xmlns="http://www.w3.org/2000/svg"
 width="918.000000pt" height="918.000000pt" viewBox="0 0 918.000000 918.000000"
 preserveAspectRatio="xMidYMid meet">
<metadata>
Created by potrace 1.14, written by Peter Selinger 2001-2017
</metadata>
<g transform="translate(0.000000,918.000000) scale(0.100000,-0.100000)"
fill="#000000" stroke="none">
<path d="M4458 8414 c-2 -2 -40 -6 -84 -9 -192 -14 -298 -25 -374 -40 -14 -3
-45 -8 -70 -11 -25 -3 -52 -7 -60 -9 -8 -2 -31 -7 -50 -10 -19 -3 -44 -9 -55
-12 -11 -3 -29 -8 -40 -9 -25 -4 -40 -8 -95 -23 -25 -8 -49 -14 -55 -15 -5 -2
-30 -9 -55 -16 -25 -7 -49 -15 -55 -16 -68 -18 -131 -39 -135 -44 -3 -4 -17
-10 -32 -14 -15 -3 -40 -11 -55 -17 -15 -6 -28 -9 -28 -8 0 2 -13 -4 -30 -13
-16 -9 -46 -22 -65 -29 -19 -7 -73 -31 -120 -53 -47 -21 -88 -39 -92 -38 -5 1
-8 -3 -8 -9 0 -5 -4 -7 -10 -4 -5 3 -10 1 -10 -4 0 -6 -9 -11 -20 -11 -11 0
-20 -4 -20 -8 0 -4 -16 -14 -35 -21 -19 -7 -35 -17 -35 -23 0 -6 -3 -9 -6 -5
-5 5 -124 -59 -134 -73 -3 -4 -16 -11 -30 -15 -13 -4 -29 -13 -36 -20 -7 -6
-36 -27 -66 -46 -29 -18 -54 -37 -56 -41 -2 -5 -10 -8 -17 -8 -7 0 -15 -4 -17
-8 -1 -4 -20 -18 -40 -31 -21 -12 -38 -27 -38 -32 0 -5 -7 -9 -15 -9 -8 0 -15
-4 -15 -10 0 -5 -6 -10 -14 -10 -8 0 -17 -7 -20 -16 -4 -9 -9 -14 -12 -11 -3
3 -24 -13 -47 -34 -23 -21 -48 -39 -55 -39 -7 0 -11 -4 -8 -8 3 -5 -12 -19
-33 -33 -22 -13 -37 -27 -34 -31 2 -5 -3 -8 -12 -8 -9 0 -13 -4 -10 -10 3 -5
1 -10 -6 -10 -6 0 -22 -11 -34 -24 -13 -14 -26 -22 -29 -19 -3 4 -6 0 -7 -8
-1 -8 -37 -47 -80 -87 -43 -40 -79 -75 -79 -77 0 -3 -2 -5 -5 -5 -3 0 -20 -17
-38 -37 -17 -21 -36 -41 -42 -45 -5 -4 -7 -8 -3 -8 4 0 -8 -15 -27 -33 -19
-19 -32 -36 -29 -40 3 -3 -4 -8 -15 -12 -12 -3 -19 -11 -16 -16 4 -5 1 -9 -5
-9 -6 0 -13 -7 -17 -16 -3 -9 -21 -33 -39 -53 -19 -20 -34 -39 -34 -43 0 -5
-8 -16 -17 -26 -32 -33 -47 -55 -136 -189 -48 -73 -87 -137 -87 -143 0 -5 -4
-10 -10 -10 -5 0 -10 -6 -10 -14 0 -7 -9 -25 -20 -39 -11 -14 -20 -32 -20 -41
0 -9 -4 -16 -8 -16 -5 0 -19 -24 -33 -52 -13 -29 -28 -56 -32 -59 -5 -3 -9
-12 -11 -20 -1 -8 -15 -39 -31 -69 -16 -30 -28 -58 -27 -62 1 -3 -10 -28 -24
-55 -15 -26 -28 -55 -29 -63 -2 -8 -11 -33 -21 -55 -10 -22 -18 -42 -18 -45
-1 -5 -30 -85 -43 -120 -4 -8 -7 -17 -8 -20 0 -3 -14 -45 -29 -95 -16 -49 -30
-97 -31 -105 -1 -8 -4 -22 -8 -30 -12 -28 -54 -214 -63 -280 -2 -19 -6 -42 -9
-50 -2 -8 -7 -37 -11 -65 -3 -27 -8 -59 -10 -70 -7 -35 -17 -129 -18 -162 0
-18 -3 -33 -6 -33 -3 0 -5 -28 -4 -63 1 -34 -3 -69 -7 -78 -5 -9 -3 -21 3 -27
9 -9 9 -12 0 -12 -9 0 -11 -45 -7 -177 2 -98 6 -194 9 -213 2 -19 7 -75 11
-125 4 -49 8 -92 10 -95 1 -3 6 -26 9 -52 3 -27 9 -69 12 -95 3 -27 8 -50 9
-53 3 -5 9 -41 20 -115 2 -11 13 -60 25 -110 12 -49 23 -98 25 -108 2 -9 7
-22 10 -27 4 -6 9 -23 11 -38 3 -15 17 -63 32 -107 14 -44 26 -83 27 -87 0 -3
3 -10 7 -14 5 -4 8 -18 8 -31 0 -12 5 -23 12 -23 6 0 9 -3 5 -6 -3 -4 2 -23
12 -43 11 -20 20 -40 21 -46 6 -25 65 -165 93 -220 11 -22 20 -42 20 -45 0 -3
11 -22 24 -42 13 -21 21 -38 17 -38 -3 0 4 -13 15 -29 12 -16 21 -31 21 -34 0
-8 83 -151 91 -157 3 -3 9 -15 13 -27 4 -13 11 -23 16 -23 4 0 10 -8 14 -18 5
-17 26 -52 36 -62 12 -12 70 -101 70 -108 0 -4 9 -13 20 -20 11 -7 20 -17 20
-22 0 -9 19 -35 47 -65 7 -8 13 -16 13 -20 0 -4 6 -12 12 -19 7 -7 29 -32 48
-56 63 -76 70 -84 148 -169 126 -137 330 -330 350 -331 7 0 11 -4 8 -8 -3 -5
6 -15 19 -22 14 -7 25 -17 25 -22 0 -4 5 -8 10 -8 5 0 19 -8 29 -18 11 -9 31
-26 46 -37 29 -22 54 -42 82 -65 10 -9 21 -15 25 -15 3 0 18 -10 32 -23 15
-12 31 -22 36 -22 6 0 10 -4 10 -10 0 -5 6 -10 13 -10 7 0 23 -9 35 -20 12
-11 26 -20 32 -20 5 0 10 -4 10 -10 0 -5 6 -10 14 -10 8 0 21 -6 28 -13 17
-15 88 -57 111 -64 9 -3 17 -9 17 -14 0 -5 7 -9 15 -9 8 0 15 -4 15 -10 0 -5
8 -10 18 -10 10 0 22 -4 27 -9 15 -14 139 -76 148 -73 4 1 7 -2 7 -8 0 -5 5
-10 11 -10 6 0 33 -11 61 -25 27 -14 56 -25 64 -25 8 0 14 -5 14 -11 0 -5 5
-7 10 -4 6 3 10 1 10 -5 0 -6 4 -9 8 -6 4 2 21 -1 37 -8 30 -14 57 -24 178
-70 38 -15 72 -24 77 -21 4 3 10 2 12 -3 3 -7 107 -40 201 -63 62 -15 121 -29
147 -35 14 -2 32 -7 40 -9 8 -3 33 -7 55 -10 22 -4 51 -8 65 -11 32 -6 88 -15
120 -19 14 -2 45 -6 70 -10 25 -3 72 -8 105 -10 33 -2 60 -5 60 -6 0 -11 602
-10 625 1 3 1 9 2 15 1 11 -3 146 14 275 34 25 4 54 9 65 12 11 2 36 6 55 8
19 3 46 8 60 11 26 7 38 10 80 18 14 3 43 10 65 16 22 6 58 16 80 21 22 5 47
12 55 16 18 7 30 11 50 16 8 2 40 11 70 21 70 22 74 24 80 23 3 0 16 6 30 13
14 8 28 15 33 16 4 1 9 3 12 4 3 1 8 3 13 4 15 3 104 40 205 85 38 17 72 31
76 31 5 0 14 7 21 15 7 8 16 13 20 10 5 -3 14 1 22 8 7 7 16 14 21 15 23 4
125 60 120 66 -3 3 1 6 11 6 17 0 60 24 84 47 8 7 18 11 23 8 5 -4 9 -2 9 2 0
5 20 19 45 33 25 14 45 28 45 32 0 5 7 8 14 8 8 0 26 10 40 23 13 12 37 29 53
37 15 8 32 21 36 27 4 7 14 13 20 13 7 0 32 18 55 39 23 22 42 37 42 34 0 -3
21 12 48 33 26 22 58 48 72 59 13 11 50 44 82 74 32 30 58 52 58 49 0 -5 218
213 250 251 11 13 20 28 20 33 0 5 5 6 10 3 6 -3 10 -3 10 2 0 4 15 24 33 44
42 47 66 76 102 124 16 22 33 42 37 43 4 2 8 10 8 18 0 9 5 12 10 9 6 -3 10
-1 10 5 0 6 16 32 35 58 20 26 35 51 34 56 0 5 6 13 15 18 9 5 16 16 16 24 0
8 5 12 10 9 6 -3 10 3 10 14 0 10 4 21 9 23 14 5 100 145 94 152 -4 3 -2 6 4
6 6 0 14 11 17 25 4 14 11 25 16 25 6 0 10 5 10 11 0 6 9 24 21 40 11 16 17
29 14 29 -4 0 1 7 9 16 9 8 14 20 11 25 -4 5 -1 9 5 9 6 0 9 4 6 8 -3 5 2 18
12 28 9 11 18 24 19 29 1 6 18 44 37 86 20 42 36 82 36 88 0 6 5 11 11 11 6 0
9 6 6 14 -3 7 0 19 6 25 7 7 12 15 12 19 1 6 36 103 52 142 3 8 7 20 9 25 2 6
13 37 24 70 12 33 23 67 25 75 2 8 10 36 18 63 8 26 13 47 11 47 -3 0 0 8 5
18 6 11 12 30 15 43 3 13 7 34 10 47 4 12 8 32 11 45 2 12 8 36 12 52 9 39 8
33 17 88 4 27 10 59 12 70 3 12 7 38 10 57 2 19 6 46 9 60 42 221 47 698 11
995 -5 41 -20 149 -21 155 -1 3 -5 28 -9 55 -5 28 -15 79 -23 115 -8 36 -17
74 -19 85 -5 27 -13 61 -19 83 -30 114 -37 139 -42 152 -3 8 -5 21 -4 28 1 6
-3 12 -9 12 -5 0 -10 13 -10 29 0 17 -4 32 -9 35 -4 3 -11 18 -14 33 -3 16
-11 42 -18 58 -7 17 -13 33 -14 38 -2 4 -4 9 -5 12 -1 3 -3 8 -5 13 -2 7 -20
54 -32 82 -3 8 -7 17 -8 20 -5 14 -28 67 -50 116 -14 30 -25 59 -25 64 0 6 -4
10 -10 10 -5 0 -10 9 -10 19 0 11 -5 21 -11 23 -5 2 -11 10 -13 18 -1 8 -7 24
-13 35 -6 11 -27 51 -47 89 -20 38 -44 80 -54 95 -10 14 -24 38 -32 54 -7 15
-17 27 -22 27 -5 0 -6 5 -3 10 3 6 -1 13 -9 16 -9 3 -13 10 -10 15 3 5 0 9 -5
9 -6 0 -11 5 -11 11 0 9 -56 96 -71 109 -3 3 -15 22 -28 43 -13 21 -28 43 -35
50 -7 6 -24 29 -37 49 -14 21 -29 35 -32 31 -4 -3 -7 -1 -7 6 0 16 -64 95
-160 199 -22 24 -40 47 -40 52 0 5 -9 12 -20 15 -11 3 -20 10 -20 14 0 5 -18
28 -40 52 -22 24 -40 41 -40 38 0 -4 -19 12 -43 35 -23 22 -41 44 -39 49 2 4
-2 7 -9 7 -6 0 -21 10 -33 23 -30 31 -134 120 -154 131 -9 5 -27 20 -40 33
-12 13 -26 23 -30 23 -4 0 -18 10 -32 23 -14 12 -45 36 -70 52 -49 33 -54 36
-89 65 -13 11 -32 22 -42 25 -11 4 -19 11 -19 16 0 5 -3 8 -7 7 -5 -2 -29 12
-54 29 -26 18 -49 29 -53 26 -3 -4 -6 -2 -6 3 0 5 -17 18 -37 29 -21 10 -46
26 -55 34 -10 8 -18 11 -18 7 0 -4 -7 0 -16 8 -8 9 -21 16 -28 16 -7 0 -22 9
-34 20 -12 12 -22 18 -22 15 0 -3 -10 0 -22 7 -13 7 -25 13 -28 13 -15 3 -85
41 -88 48 -2 4 -11 7 -21 7 -9 0 -27 7 -39 16 -12 8 -22 12 -22 8 0 -3 -6 -2
-12 4 -7 6 -44 22 -83 36 -38 15 -79 31 -90 36 -21 10 -227 79 -257 85 -9 2
-26 9 -37 15 -12 6 -21 9 -21 6 0 -2 -16 0 -36 6 -40 11 -42 11 -129 32 -88
22 -222 46 -335 60 -25 3 -56 8 -70 11 -14 3 -70 8 -125 11 -55 3 -111 8 -125
11 -30 6 -337 13 -342 7z"/>
</g>
</svg>
